<svg width="500" height="500" viewBox="0 0 500 500" fill="none" xmlns="http://www.w3.org/2000/svg">
  <defs>
    <linearGradient id="grad1" x1="0%" y1="0%" x2="100%" y2="100%">
      <stop offset="0%" stop-color="#6C63FF"></stop>
      <stop offset="50%" stop-color="#8A63FF"></stop>
      <stop offset="100%" stop-color="#B76CFF"></stop>
    </linearGradient>

    <radialGradient id="grad2" cx="50%" cy="50%" r="70%">
      <stop offset="0%" stop-color="white" stop-opacity="0.9"></stop>
      <stop offset="100%" stop-color="white" stop-opacity="0"></stop>
    </radialGradient>
  </defs>

  <!-- Blob principale -->
  <path d="M350 60C420 120 470 210 440 300C410 390 300 440 210 410C120 380 60 300 70 220C80 140 160 30 260 30C300 30 330 40 350 60Z" fill="url(#grad1)"></path>

  <!-- Highlight morbidi -->
  <ellipse cx="300" cy="170" rx="120" ry="60" fill="url(#grad2)"></ellipse>

  <!-- Cerchi decorativi -->
  <circle cx="120" cy="380" r="45" fill="#ffffff" opacity="0.15"></circle>
  <circle cx="420" cy="120" r="30" fill="#ffffff" opacity="0.08"></circle>

  <!-- Icone stile "signup" -->
  <g transform="translate(170,180) scale(1.1)">
    <rect x="-20" y="-20" width="120" height="120" rx="22" fill="white" opacity="0.2"></rect>
    <circle cx="40" cy="10" r="20" fill="white"></circle>
    <rect x="-5" y="50" width="90" height="14" rx="7" fill="white"></rect>
  </g>
</svg>
